# Blender v2.79 (sub 0) OBJ File: 'ThirdTryMerge.blend'
# www.blender.org
# Room3
v 4.027006 0.004000 1.410598
v 4.027006 0.396000 1.410598
v 4.027006 0.004000 -1.521080
v 4.027006 0.396000 -1.521080
v 5.291299 0.004000 1.410598
v 5.291299 0.396000 1.410598
v 5.291299 0.004000 -1.521080
v 5.291299 0.396000 -1.521080
# Room2
v 2.214795 0.004000 0.501487
v 2.214795 0.396000 0.501487
v 2.214795 0.004000 -0.679589
v 2.214795 0.396000 -0.679589
v 3.835970 0.004000 0.501487
v 3.835970 0.396000 0.501487
v 3.835970 0.004000 -0.679589
v 3.835970 0.396000 -0.679589
# Room1
v 0.593605 0.004000 0.501487
v 0.593605 0.396000 0.501487
v 0.593605 0.004000 -0.679589
v 0.593605 0.396000 -0.679589
v 2.214781 0.004000 0.501487
v 2.214781 0.396000 0.501487
v 2.214781 0.004000 -0.679589
v 2.214781 0.396000 -0.679589
# Room3
vt 1.000000 0.000000
vt 0.000000 1.000000
vt 0.000000 0.000000
vt 1.000000 0.000000
vt 0.000000 1.000000
vt 0.000000 0.000000
vt 1.000000 0.000000
vt 0.000000 1.000000
vt 0.000000 0.000000
vt 1.000000 0.000000
vt 0.000000 1.000000
vt 0.000000 0.000000
vt 1.000000 0.000000
vt 0.000000 1.000000
vt 0.000000 0.000000
vt 1.000000 1.000000
vt 1.000000 1.000000
vt 1.000000 1.000000
vt 1.000000 1.000000
vt 1.000000 1.000000
# Room2
vt 1.000000 0.000000
vt 0.000000 1.000000
vt 0.000000 0.000000
vt 1.000000 0.000000
vt 0.000000 1.000000
vt 0.000000 0.000000
vt 1.000000 0.000000
vt 0.000000 1.000000
vt 0.000000 0.000000
vt 1.000000 0.000000
vt 0.000000 1.000000
vt 0.000000 0.000000
vt 1.000000 0.000000
vt 0.000000 1.000000
vt 0.000000 0.000000
vt 1.000000 1.000000
vt 1.000000 1.000000
vt 1.000000 1.000000
vt 1.000000 1.000000
vt 1.000000 1.000000
# Room1
vt 1.000000 0.000000
vt 0.000000 1.000000
vt 0.000000 0.000000
vt 1.000000 0.000000
vt 0.000000 1.000000
vt 0.000000 0.000000
vt 1.000000 0.000000
vt 0.000000 1.000000
vt 0.000000 0.000000
vt 1.000000 0.000000
vt 0.000000 1.000000
vt 0.000000 0.000000
vt 1.000000 0.000000
vt 0.000000 1.000000
vt 0.000000 0.000000
vt 1.000000 1.000000
vt 1.000000 1.000000
vt 1.000000 1.000000
vt 1.000000 1.000000
vt 1.000000 1.000000
# Room3
vn -1.0000 0.0000 0.0000
vn 0.0000 0.0000 -1.0000
vn 1.0000 0.0000 0.0000
vn 0.0000 0.0000 1.0000
vn 0.0000 -1.0000 0.0000
vn 0.0000 1.0000 0.0000
# Room2
vn -1.0000 0.0000 0.0000
vn 0.0000 0.0000 -1.0000
vn 1.0000 0.0000 0.0000
vn 0.0000 0.0000 1.0000
vn 0.0000 -1.0000 0.0000
vn 0.0000 1.0000 0.0000
# Room1
vn -1.0000 0.0000 0.0000
vn 0.0000 0.0000 -1.0000
vn 1.0000 0.0000 0.0000
vn 0.0000 0.0000 1.0000
vn 0.0000 -1.0000 0.0000
vn 0.0000 1.0000 0.0000
o Room1_Cube.004
s off
f 18/41/13 19/42/13 17/43/13
f 20/44/14 23/45/14 19/46/14
f 24/47/15 21/48/15 23/49/15
f 22/50/16 17/51/16 21/52/16
f 23/53/17 17/51/17 19/46/17
f 20/44/18 22/54/18 24/55/18
f 18/41/13 20/56/13 19/42/13
f 20/44/14 24/57/14 23/45/14
f 24/47/15 22/58/15 21/48/15
f 22/50/16 18/59/16 17/51/16
f 23/53/17 21/60/17 17/51/17
f 20/44/18 18/59/18 22/54/18
o Room2_Cube.005
s off
f 10/21/7 11/22/7 9/23/7
f 12/24/8 15/25/8 11/26/8
f 16/27/9 13/28/9 15/29/9
f 14/30/10 9/31/10 13/32/10
f 15/33/11 9/31/11 11/26/11
f 12/24/12 14/34/12 16/35/12
f 10/21/7 12/36/7 11/22/7
f 12/24/8 16/37/8 15/25/8
f 16/27/9 14/38/9 13/28/9
f 14/30/10 10/39/10 9/31/10
f 15/33/11 13/40/11 9/31/11
f 12/24/12 10/39/12 14/34/12
o Room3_Cube.006
s off
f 2/1/1 3/2/1 1/3/1
f 4/4/2 7/5/2 3/6/2
f 8/7/3 5/8/3 7/9/3
f 6/10/4 1/11/4 5/12/4
f 7/13/5 1/11/5 3/6/5
f 4/4/6 6/14/6 8/15/6
f 2/1/1 4/16/1 3/2/1
f 4/4/2 8/17/2 7/5/2
f 8/7/3 6/18/3 5/8/3
f 6/10/4 2/19/4 1/11/4
f 7/13/5 5/20/5 1/11/5
f 4/4/6 2/19/6 6/14/6
