# Blender v2.79 (sub 0) OBJ File: 'SecondTry.blend'
# www.blender.org
o Walls1_CUpath3769
v 0.905375 0.000000 1.548830
v 0.905375 0.000000 -1.439686
v -0.425206 0.000000 -1.439686
v -0.425206 0.000000 -0.084780
v -0.569569 0.000000 -0.084780
v -0.569569 0.000000 -0.524993
v -3.031949 0.000000 -0.524993
v -3.031949 0.000000 -0.471828
v -0.622708 0.000000 -0.471828
v -0.622708 0.000000 -0.031654
v -0.372068 0.000000 -0.031654
v -0.372068 0.000000 -1.386559
v 0.852200 0.000000 -1.386559
v 0.852200 0.000000 1.495703
v -0.372068 0.000000 1.495703
v -0.372068 0.000000 0.206521
v -0.622708 0.000000 0.206521
v -0.622708 0.000000 0.647428
v -2.060957 0.000000 0.647428
v -2.060957 0.000000 0.700555
v -0.569569 0.000000 0.700555
v -0.569569 0.000000 0.259647
v -0.425206 0.000000 0.259647
v -0.425206 0.000000 1.548830
v -4.001951 0.000000 1.548830
v -4.001951 0.000000 -0.188985
v -3.863667 0.000000 -0.188985
v -3.863667 0.000000 0.700555
v -2.364369 0.000000 0.700555
v -2.364369 0.000000 0.647428
v -3.810529 0.000000 0.647428
v -3.810529 0.000000 -0.242112
v -4.055089 0.000000 -0.242112
v -4.055089 0.000000 1.495703
v -4.767494 0.000000 1.495703
v -4.767494 0.000000 1.548830
v -5.186631 0.000000 1.548830
v -5.186631 0.000000 1.495703
v -5.263977 0.000000 1.495703
v -5.263977 0.000000 1.232631
v -5.553839 0.000000 1.232631
v -5.553839 0.000000 1.495703
v -6.747088 0.000000 1.495703
v -6.747088 0.000000 -1.386559
v -5.553839 0.000000 -1.386559
v -5.553839 0.000000 -1.251782
v -5.263977 0.000000 -1.251782
v -5.263977 0.000000 -1.386559
v -4.451375 0.000000 -1.386559
v -4.451375 0.000000 -1.439686
v -5.317151 0.000000 -1.439686
v -5.317151 0.000000 -1.304910
v -5.500663 0.000000 -1.304910
v -5.500663 0.000000 -1.439686
v -6.800227 0.000000 -1.439686
v -6.800227 0.000000 1.548830
v -5.500663 0.000000 1.548830
v -5.500663 0.000000 1.285758
v -5.317151 0.000000 1.285758
v -5.317002 0.000000 1.548830
v -5.553839 0.000000 0.992663
v -5.317151 0.000000 -0.932105
v -3.335068 0.000000 -0.471828
v -3.335068 0.000000 -0.524993
v -4.001951 0.000000 -0.524993
v -4.001951 0.000000 -1.439686
v -4.128297 0.000000 -1.439686
v -4.128297 0.000000 -1.386559
v -4.055089 0.000000 -1.386559
v -4.055089 0.000000 -0.471828
v 0.905375 0.400000 1.548830
v 0.905375 0.400000 -1.439686
v -0.425206 0.400000 -1.439686
v -0.425206 0.400000 -0.084780
v -0.569569 0.400000 -0.084780
v -0.569569 0.400000 -0.524993
v -3.031949 0.400000 -0.524993
v -3.031949 0.400000 -0.471828
v -0.622708 0.400000 -0.471828
v -0.622708 0.400000 -0.031654
v -0.372068 0.400000 -0.031654
v -0.372068 0.400000 -1.386559
v 0.852200 0.400000 -1.386559
v 0.852200 0.400000 1.495703
v -0.372068 0.400000 1.495703
v -0.372068 0.400000 0.206521
v -0.622708 0.400000 0.206521
v -0.622708 0.400000 0.647428
v -2.060957 0.400000 0.647428
v -2.060957 0.400000 0.700555
v -0.569569 0.400000 0.700555
v -0.569569 0.400000 0.259647
v -0.425206 0.400000 0.259647
v -0.425206 0.400000 1.548830
v -4.001951 0.400000 1.548830
v -4.001951 0.400000 -0.188985
v -3.863667 0.400000 -0.188985
v -3.863667 0.400000 0.700555
v -2.364369 0.400000 0.700555
v -2.364369 0.400000 0.647428
v -3.810529 0.400000 0.647428
v -3.810529 0.400000 -0.242112
v -4.055089 0.400000 -0.242112
v -4.055089 0.400000 1.495703
v -4.767494 0.400000 1.495703
v -4.767494 0.400000 1.548830
v -5.186631 0.400000 1.548830
v -5.186631 0.400000 1.495703
v -5.263977 0.400000 1.495703
v -5.263977 0.400000 1.232631
v -5.553839 0.400000 1.232631
v -5.553839 0.400000 1.495703
v -6.747088 0.400000 1.495703
v -6.747088 0.400000 -1.386559
v -5.553839 0.400000 -1.386559
v -5.553839 0.400000 -1.251782
v -5.263977 0.400000 -1.251782
v -5.263977 0.400000 -1.386559
v -4.451375 0.400000 -1.386559
v -4.451375 0.400000 -1.439686
v -5.317151 0.400000 -1.439686
v -5.317151 0.400000 -1.304910
v -5.500663 0.400000 -1.304910
v -5.500663 0.400000 -1.439686
v -6.800227 0.400000 -1.439686
v -6.800227 0.400000 1.548830
v -5.500663 0.400000 1.548830
v -5.500663 0.400000 1.285758
v -5.317151 0.400000 1.285758
v -5.317002 0.400000 1.548830
v -3.335068 0.400000 -0.471828
v -3.335068 0.400000 -0.524993
v -4.001951 0.400000 -0.524993
v -4.001951 0.400000 -1.439686
v -4.128297 0.400000 -1.439686
v -4.128297 0.400000 -1.386559
v -4.055089 0.400000 -1.386559
v -4.055089 0.400000 -0.471828
v -5.264085 0.000000 -0.985201
v -5.264085 0.400000 -0.985201
v -5.264085 0.000000 0.992484
v -5.264085 0.400000 0.992484
v -5.553620 0.000000 -0.985201
v -5.553620 0.400000 -0.985201
v -5.553620 0.000000 0.992484
v -5.553620 0.400000 0.992484
v 0.874246 0.000000 -1.416561
v -0.398737 0.000000 -1.416561
v 0.874246 0.000000 1.522667
v -0.398737 0.000000 1.522667
v -0.398737 0.000000 0.237754
v -0.398737 0.000000 -0.054947
v -0.595228 0.000000 0.237754
v -0.595228 0.000000 -0.054947
v -0.595228 0.000000 0.672417
v -0.595228 0.000000 -0.489610
v -3.847158 0.000000 0.672417
v -3.847158 0.000000 -0.489610
v -3.847158 0.000000 -0.213158
v -4.027275 0.000000 -0.489610
v -4.027275 0.000000 -0.213158
v -4.027275 0.000000 -1.414145
v -4.027275 0.000000 1.521716
v -5.291106 0.000000 -1.414145
v -5.291106 0.000000 1.521716
v -5.291106 0.000000 1.264800
v -5.291106 0.000000 -1.280028
v -5.523123 0.000000 1.264800
v -5.523123 0.000000 -1.280028
v -5.523123 0.000000 1.523246
v -5.523123 0.000000 -1.408319
v -6.773751 0.000000 1.523246
v -6.773751 0.000000 -1.408319
v -4.056859 0.000000 0.200000
v -4.456859 0.000000 0.200000
v -4.056859 0.400000 -0.200000
v -4.456859 0.400000 -0.200000
v -4.056859 0.000000 -0.200000
v -4.456859 0.000000 -0.200000
v -4.056859 0.080000 0.200000
v -4.456859 0.080000 0.200000
v -4.056859 0.400000 -0.120000
v -4.456859 0.400000 -0.120000
v -4.456859 0.080000 0.120000
v -4.456859 0.160000 0.120000
v -4.456859 0.160000 0.040000
v -4.456859 0.240000 0.040000
v -4.456859 0.240000 -0.040000
v -4.456859 0.320000 -0.040000
v -4.456859 0.320000 -0.120000
v -4.056859 0.080000 0.120000
v -4.056859 0.160000 0.040000
v -4.056859 0.160000 0.120000
v -4.056859 0.240000 -0.040000
v -4.056859 0.240000 0.040000
v -4.056859 0.320000 -0.120000
v -4.056859 0.320000 -0.040000
vn 0.0000 -1.0000 0.0000
vn 0.0000 1.0000 0.0000
vn 1.0000 0.0000 0.0000
vn -1.0000 0.0000 0.0000
vn 0.0000 0.0000 -1.0000
vn 0.0000 0.0000 1.0000
vn -1.0000 0.0000 0.0006
s off
f 2//1 13//1 3//1
f 65//1 70//1 69//1
f 27//1 32//1 31//1
f 56//1 44//1 43//1
f 84//2 94//2 71//2
f 137//2 133//2 134//2
f 103//2 104//2 96//2
f 114//2 125//2 126//2
f 2//3 71//3 1//3
f 24//4 93//4 23//4
f 42//4 111//4 41//4
f 39//5 108//5 38//5
f 66//3 133//3 65//3
f 55//5 124//5 54//5
f 69//6 136//6 68//6
f 6//3 75//3 5//3
f 5//5 74//5 4//5
f 56//4 125//4 55//4
f 25//6 106//6 36//6
f 3//5 72//5 2//5
f 43//5 112//5 42//5
f 58//3 127//3 57//3
f 37//6 130//6 60//6
f 33//5 102//5 32//5
f 46//4 115//4 45//4
f 36//4 105//4 35//4
f 10//4 79//4 9//4
f 23//6 92//6 22//6
f 68//4 135//4 67//4
f 65//5 132//5 64//5
f 26//3 95//3 25//3
f 8//4 77//4 7//4
f 48//3 117//3 47//3
f 52//4 121//4 51//4
f 20//4 89//4 19//4
f 29//6 98//6 28//6
f 17//5 86//5 16//5
f 70//4 137//4 69//4
f 57//6 126//6 56//6
f 41//5 110//5 40//5
f 59//6 128//6 58//6
f 7//5 76//5 6//5
f 47//6 116//6 46//6
f 1//6 94//6 24//6
f 13//6 82//6 12//6
f 27//6 96//6 26//6
f 30//3 99//3 29//3
f 64//3 131//3 63//3
f 14//4 83//4 13//4
f 44//3 113//3 43//3
f 4//4 73//4 3//4
f 32//3 101//3 31//3
f 50//3 119//3 49//3
f 63//6 138//6 70//6
f 53//5 122//5 52//5
f 67//5 134//5 66//5
f 11//6 80//6 10//6
f 16//3 85//3 15//3
f 34//4 103//4 33//4
f 31//5 100//5 30//5
f 35//5 104//5 34//5
f 18//4 87//4 17//4
f 38//3 107//3 37//3
f 9//6 78//6 8//6
f 49//6 118//6 48//6
f 51//5 120//5 50//5
f 60//7 129//7 59//7
f 28//4 97//4 27//4
f 22//3 91//3 21//3
f 21//6 90//6 20//6
f 54//3 123//3 53//3
f 15//5 84//5 14//5
f 40//3 109//3 39//3
f 12//3 81//3 11//3
f 45//6 114//6 44//6
f 19//5 88//5 18//5
f 140//3 141//3 139//3
f 142//6 145//6 141//6
f 146//4 143//4 145//4
f 144//5 139//5 143//5
f 145//1 139//1 141//1
f 142//2 144//2 146//2
f 152//2 149//2 147//2
f 152//2 153//2 151//2
f 153//2 156//2 155//2
f 156//2 159//2 155//2
f 158//2 161//2 159//2
f 161//6 162//6 163//6
f 162//2 167//2 166//2
f 167//2 168//2 166//2
f 168//1 171//1 170//1
f 171//2 172//2 170//2
f 181//6 174//6 180//6
f 178//3 194//3 192//3
f 177//5 178//5 179//5
f 179//4 186//4 188//4
f 193//2 186//2 185//2
f 187//6 192//6 195//6
f 195//2 188//2 187//2
f 177//2 182//2 176//2
f 189//6 194//6 197//6
f 190//6 182//6 183//6
f 197//2 190//2 189//2
f 175//1 178//1 174//1
f 185//6 191//6 193//6
f 184//2 180//2 191//2
f 21//1 20//1 18//1
f 20//1 19//1 18//1
f 22//1 21//1 18//1
f 9//1 8//1 7//1
f 22//1 18//1 17//1
f 9//1 7//1 6//1
f 9//1 6//1 5//1
f 22//1 17//1 16//1
f 23//1 22//1 16//1
f 23//1 16//1 15//1
f 10//1 9//1 5//1
f 24//1 23//1 15//1
f 10//1 5//1 11//1
f 24//1 15//1 14//1
f 11//1 5//1 4//1
f 12//1 11//1 4//1
f 1//1 24//1 14//1
f 1//1 14//1 13//1
f 12//1 4//1 3//1
f 2//1 1//1 13//1
f 13//1 12//1 3//1
f 69//1 68//1 67//1
f 65//1 64//1 63//1
f 69//1 67//1 66//1
f 65//1 63//1 70//1
f 69//1 66//1 65//1
f 25//1 36//1 34//1
f 36//1 35//1 34//1
f 26//1 25//1 34//1
f 31//1 30//1 29//1
f 26//1 34//1 33//1
f 31//1 29//1 28//1
f 27//1 26//1 32//1
f 31//1 28//1 27//1
f 26//1 33//1 32//1
f 39//1 38//1 37//1
f 51//1 50//1 48//1
f 50//1 49//1 48//1
f 52//1 51//1 48//1
f 39//1 37//1 60//1
f 39//1 60//1 59//1
f 52//1 48//1 47//1
f 53//1 52//1 47//1
f 40//1 39//1 59//1
f 40//1 59//1 58//1
f 53//1 47//1 46//1
f 41//1 40//1 58//1
f 42//1 41//1 58//1
f 54//1 53//1 45//1
f 53//1 46//1 45//1
f 42//1 58//1 57//1
f 43//1 42//1 56//1
f 55//1 54//1 45//1
f 55//1 45//1 44//1
f 42//1 57//1 56//1
f 55//1 44//1 56//1
f 76//2 77//2 79//2
f 77//2 78//2 79//2
f 75//2 76//2 79//2
f 88//2 89//2 90//2
f 75//2 79//2 80//2
f 88//2 90//2 91//2
f 88//2 91//2 92//2
f 75//2 80//2 81//2
f 74//2 75//2 81//2
f 74//2 81//2 82//2
f 87//2 88//2 92//2
f 73//2 74//2 82//2
f 87//2 92//2 86//2
f 73//2 82//2 83//2
f 86//2 92//2 93//2
f 85//2 86//2 93//2
f 72//2 73//2 83//2
f 72//2 83//2 84//2
f 85//2 93//2 94//2
f 71//2 72//2 84//2
f 84//2 85//2 94//2
f 135//2 136//2 137//2
f 138//2 131//2 133//2
f 131//2 132//2 133//2
f 134//2 135//2 137//2
f 137//2 138//2 133//2
f 98//2 99//2 101//2
f 99//2 100//2 101//2
f 97//2 98//2 101//2
f 104//2 105//2 106//2
f 97//2 101//2 102//2
f 104//2 106//2 95//2
f 96//2 97//2 102//2
f 104//2 95//2 96//2
f 96//2 102//2 103//2
f 118//2 119//2 120//2
f 130//2 107//2 109//2
f 107//2 108//2 109//2
f 129//2 130//2 109//2
f 118//2 120//2 121//2
f 118//2 121//2 122//2
f 129//2 109//2 110//2
f 128//2 129//2 110//2
f 117//2 118//2 122//2
f 117//2 122//2 123//2
f 128//2 110//2 111//2
f 116//2 117//2 123//2
f 115//2 116//2 123//2
f 127//2 128//2 112//2
f 128//2 111//2 112//2
f 115//2 123//2 124//2
f 114//2 115//2 125//2
f 126//2 127//2 112//2
f 126//2 112//2 113//2
f 115//2 124//2 125//2
f 126//2 113//2 114//2
f 2//3 72//3 71//3
f 24//4 94//4 93//4
f 42//4 112//4 111//4
f 39//5 109//5 108//5
f 66//3 134//3 133//3
f 55//5 125//5 124//5
f 69//6 137//6 136//6
f 6//3 76//3 75//3
f 5//5 75//5 74//5
f 56//4 126//4 125//4
f 25//6 95//6 106//6
f 3//5 73//5 72//5
f 43//5 113//5 112//5
f 58//3 128//3 127//3
f 37//6 107//6 130//6
f 33//5 103//5 102//5
f 46//4 116//4 115//4
f 36//4 106//4 105//4
f 10//4 80//4 79//4
f 23//6 93//6 92//6
f 68//4 136//4 135//4
f 65//5 133//5 132//5
f 26//3 96//3 95//3
f 8//4 78//4 77//4
f 48//3 118//3 117//3
f 52//4 122//4 121//4
f 20//4 90//4 89//4
f 29//6 99//6 98//6
f 17//5 87//5 86//5
f 70//4 138//4 137//4
f 57//6 127//6 126//6
f 41//5 111//5 110//5
f 59//6 129//6 128//6
f 7//5 77//5 76//5
f 47//6 117//6 116//6
f 1//6 71//6 94//6
f 13//6 83//6 82//6
f 27//6 97//6 96//6
f 30//3 100//3 99//3
f 64//3 132//3 131//3
f 14//4 84//4 83//4
f 44//3 114//3 113//3
f 4//4 74//4 73//4
f 32//3 102//3 101//3
f 50//3 120//3 119//3
f 63//6 131//6 138//6
f 53//5 123//5 122//5
f 67//5 135//5 134//5
f 11//6 81//6 80//6
f 16//3 86//3 85//3
f 34//4 104//4 103//4
f 31//5 101//5 100//5
f 35//5 105//5 104//5
f 18//4 88//4 87//4
f 38//3 108//3 107//3
f 9//6 79//6 78//6
f 49//6 119//6 118//6
f 51//5 121//5 120//5
f 60//7 130//7 129//7
f 28//4 98//4 97//4
f 22//3 92//3 91//3
f 21//6 91//6 90//6
f 54//3 124//3 123//3
f 15//5 85//5 84//5
f 40//3 110//3 109//3
f 12//3 82//3 81//3
f 45//6 115//6 114//6
f 19//5 89//5 88//5
f 140//3 142//3 141//3
f 142//6 146//6 145//6
f 146//4 144//4 143//4
f 144//5 140//5 139//5
f 145//1 143//1 139//1
f 142//2 140//2 144//2
f 149//2 152//2 151//2
f 148//2 152//2 147//2
f 151//2 150//2 149//2
f 152//2 154//2 153//2
f 153//6 154//6 156//6
f 157//2 155//2 159//2
f 156//2 158//2 159//2
f 158//2 160//2 161//2
f 161//2 160//2 162//2
f 165//2 163//2 166//2
f 162//2 164//2 167//2
f 166//2 163//2 162//2
f 167//2 169//2 168//2
f 168//2 169//2 171//2
f 171//2 173//2 172//2
f 181//6 175//6 174//6
f 178//3 176//3 196//3
f 196//3 197//3 194//3
f 176//3 182//3 196//3
f 180//3 174//3 191//3
f 192//3 193//3 191//3
f 191//3 174//3 178//3
f 178//3 196//3 194//3
f 194//3 195//3 192//3
f 192//3 191//3 178//3
f 177//5 176//5 178//5
f 179//4 175//4 184//4
f 184//4 185//4 186//4
f 175//4 181//4 184//4
f 183//4 177//4 190//4
f 188//4 189//4 190//4
f 190//4 177//4 179//4
f 179//4 184//4 186//4
f 186//4 187//4 188//4
f 188//4 190//4 179//4
f 193//2 192//2 186//2
f 187//6 186//6 192//6
f 195//2 194//2 188//2
f 177//2 183//2 182//2
f 189//6 188//6 194//6
f 190//6 196//6 182//6
f 197//2 196//2 190//2
f 175//1 179//1 178//1
f 185//6 184//6 191//6
f 184//2 181//2 180//2
