# Blender v2.79 (sub 0) OBJ File: 'ThirdTryMerge.blend'
# www.blender.org
mtllib BoatMaterials.mtl
v 4.056859 0.000000 -0.200000
v 4.456859 0.000000 -0.200000
v 4.056859 0.400000 0.200000
v 4.456859 0.400000 0.200000
v 4.056859 0.000000 0.200000
v 4.456859 0.000000 0.200000
v 4.056859 0.080000 -0.200000
v 4.456859 0.080000 -0.200000
v 4.056859 0.400000 0.120000
v 4.456859 0.400000 0.120000
v 4.456859 0.080000 -0.120000
v 4.456859 0.160000 -0.120000
v 4.456859 0.160000 -0.040000
v 4.456859 0.240000 -0.040000
v 4.456859 0.240000 0.040000
v 4.456859 0.320000 0.040000
v 4.456859 0.320000 0.120000
v 4.056859 0.080000 -0.120000
v 4.056859 0.160000 -0.040000
v 4.056859 0.160000 -0.120000
v 4.056859 0.240000 0.040000
v 4.056859 0.240000 -0.040000
v 4.056859 0.320000 0.120000
v 4.056859 0.320000 0.040000
vn -0.0000 0.0000 -1.0000
vn -1.0000 -0.0000 0.0000
vn 0.0000 0.0000 1.0000
vn 1.0000 0.0000 0.0000
vn -0.0000 1.0000 0.0000
vn 0.0000 -1.0000 -0.0000
g Walls1.001_CUpath3769.001_Stairs
usemtl Stairs
s off
f 8//1 1//1 7//1
f 5//2 21//2 19//2
f 4//3 5//3 6//3
f 6//4 13//4 15//4
f 20//5 13//5 12//5
f 14//1 19//1 22//1
f 22//5 15//5 14//5
f 4//5 9//5 3//5
f 16//1 21//1 24//1
f 17//1 9//1 10//1
f 24//5 17//5 16//5
f 2//6 5//6 1//6
f 12//1 18//1 20//1
f 11//5 7//5 18//5
f 8//1 2//1 1//1
f 5//2 3//2 23//2
f 23//2 24//2 21//2
f 3//2 9//2 23//2
f 7//2 1//2 18//2
f 19//2 20//2 18//2
f 18//2 1//2 5//2
f 5//2 23//2 21//2
f 21//2 22//2 19//2
f 19//2 18//2 5//2
f 4//3 3//3 5//3
f 6//4 2//4 11//4
f 11//4 12//4 13//4
f 2//4 8//4 11//4
f 10//4 4//4 17//4
f 15//4 16//4 17//4
f 17//4 4//4 6//4
f 6//4 11//4 13//4
f 13//4 14//4 15//4
f 15//4 17//4 6//4
f 20//5 19//5 13//5
f 14//1 13//1 19//1
f 22//5 21//5 15//5
f 4//5 10//5 9//5
f 16//1 15//1 21//1
f 17//1 23//1 9//1
f 24//5 23//5 17//5
f 2//6 6//6 5//6
f 12//1 11//1 18//1
f 11//5 8//5 7//5
v -0.874246 0.000000 1.416561
v 0.398737 0.000000 1.416561
v -0.874246 0.000000 -1.522667
v 0.398737 0.000000 -1.522667
v 0.398737 0.000000 -0.237754
v 0.398737 0.000000 0.054947
v 0.595228 0.000000 -0.237754
v 0.595228 0.000000 0.054947
v 0.595228 0.000000 -0.672417
v 0.595228 0.000000 0.489610
v 3.847157 0.000000 -0.672417
v 3.847157 0.000000 0.489610
v 3.847157 0.000000 0.213158
v 4.027275 0.000000 0.489610
v 4.027275 0.000000 0.213158
v 4.027275 0.000000 1.414145
v 4.027275 0.000000 -1.521716
v 5.291106 0.000000 1.414145
v 5.291106 0.000000 -1.521716
v 5.291106 0.000000 -1.264800
v 5.291106 0.000000 1.280028
v 5.523123 0.000000 -1.264800
v 5.523123 0.000000 1.280028
v 5.523123 0.000000 -1.523246
v 5.523123 0.000000 1.408319
v 6.773751 0.000000 -1.523246
v 6.773751 0.000000 1.408319
v -2.346733 0.000000 1.413397
v -1.068362 0.000000 1.413397
v -2.346733 0.000000 -0.332700
v -1.068362 0.000000 -0.332700
vn 0.0000 1.0000 0.0000
vn 0.0000 0.0000 1.0000
vn 0.0000 -1.0000 0.0000
g Plane1_Plane.001_Floor
usemtl Floor
s off
f 30//7 27//7 25//7
f 30//7 31//7 29//7
f 31//7 34//7 33//7
f 34//7 37//7 33//7
f 36//7 39//7 37//7
f 39//8 40//8 41//8
f 40//7 45//7 44//7
f 45//7 46//7 44//7
f 46//9 49//9 48//9
f 49//7 50//7 48//7
f 53//7 54//7 52//7
f 27//7 30//7 29//7
f 26//7 30//7 25//7
f 29//7 28//7 27//7
f 30//7 32//7 31//7
f 31//8 32//8 34//8
f 35//7 33//7 37//7
f 34//7 36//7 37//7
f 36//7 38//7 39//7
f 39//8 38//8 40//8
f 43//7 41//7 44//7
f 40//7 42//7 45//7
f 44//7 41//7 40//7
f 45//7 47//7 46//7
f 46//7 47//7 49//7
f 49//7 51//7 50//7
f 53//7 55//7 54//7
v -0.905375 0.000000 -1.548830
v -0.905375 0.000000 1.439686
v 0.425206 0.000000 1.439686
v 0.425206 0.000000 0.084780
v 0.569569 0.000000 0.084780
v 0.569569 0.000000 0.524993
v 3.031949 0.000000 0.524993
v 3.031949 0.000000 0.471828
v 0.622708 0.000000 0.471828
v 0.622708 0.000000 0.031654
v 0.372068 0.000000 0.031654
v 0.372068 0.000000 1.386559
v -0.852200 0.000000 1.386559
v -0.852200 0.000000 -1.495703
v 0.372068 0.000000 -1.495703
v 0.372068 0.000000 -0.206521
v 0.622708 0.000000 -0.206521
v 0.622708 0.000000 -0.647428
v 2.060957 0.000000 -0.647428
v 2.060957 0.000000 -0.700555
v 0.569569 0.000000 -0.700555
v 0.569569 0.000000 -0.259647
v 0.425206 0.000000 -0.259647
v 0.425206 0.000000 -1.548830
v 4.001951 0.000000 -1.548830
v 4.001951 0.000000 0.188985
v 3.863667 0.000000 0.188985
v 3.863667 0.000000 -0.700555
v 2.364369 0.000000 -0.700555
v 2.364369 0.000000 -0.647428
v 3.810529 0.000000 -0.647428
v 3.810529 0.000000 0.242112
v 4.055089 0.000000 0.242112
v 4.055089 0.000000 -1.495703
v 4.767494 0.000000 -1.495703
v 4.767494 0.000000 -1.548830
v 5.186631 0.000000 -1.548830
v 5.186631 0.000000 -1.495703
v 5.263977 0.000000 -1.495703
v 5.263977 0.000000 -1.232631
v 5.553839 0.000000 -1.232631
v 5.553839 0.000000 -1.495703
v 6.747088 0.000000 -1.495703
v 6.747088 0.000000 1.386559
v 5.553839 0.000000 1.386559
v 5.553839 0.000000 1.251782
v 5.263977 0.000000 1.251782
v 5.263977 0.000000 1.386559
v 4.451375 0.000000 1.386559
v 4.451375 0.000000 1.439686
v 5.317151 0.000000 1.439686
v 5.317151 0.000000 1.304910
v 5.500663 0.000000 1.304910
v 5.500663 0.000000 1.439686
v 6.800227 0.000000 1.439686
v 6.800227 0.000000 -1.548830
v 5.500663 0.000000 -1.548830
v 5.500663 0.000000 -1.285758
v 5.317151 0.000000 -1.285758
v 5.317002 0.000000 -1.548830
v 5.553839 0.000000 -0.992663
v 5.317151 0.000000 0.932105
v 3.335068 0.000000 0.471828
v 3.335068 0.000000 0.524993
v 4.001951 0.000000 0.524993
v 4.001951 0.000000 1.439686
v 4.128297 0.000000 1.439686
v 4.128297 0.000000 1.386559
v 4.055089 0.000000 1.386559
v 4.055089 0.000000 0.471828
v -0.905375 0.400000 -1.548830
v -0.905375 0.400000 1.439686
v 0.425206 0.400000 1.439686
v 0.425206 0.400000 0.084780
v 0.569569 0.400000 0.084780
v 0.569569 0.400000 0.524993
v 3.031949 0.400000 0.524993
v 3.031949 0.400000 0.471828
v 0.622708 0.400000 0.471828
v 0.622708 0.400000 0.031654
v 0.372068 0.400000 0.031654
v 0.372068 0.400000 1.386559
v -0.852200 0.400000 1.386559
v -0.852200 0.400000 -1.495703
v 0.372068 0.400000 -1.495703
v 0.372068 0.400000 -0.206521
v 0.622708 0.400000 -0.206521
v 0.622708 0.400000 -0.647428
v 2.060957 0.400000 -0.647428
v 2.060957 0.400000 -0.700555
v 0.569569 0.400000 -0.700555
v 0.569569 0.400000 -0.259647
v 0.425206 0.400000 -0.259647
v 0.425206 0.400000 -1.548830
v 4.001951 0.400000 -1.548830
v 4.001951 0.400000 0.188985
v 3.863667 0.400000 0.188985
v 3.863667 0.400000 -0.700555
v 2.364369 0.400000 -0.700555
v 2.364369 0.400000 -0.647428
v 3.810529 0.400000 -0.647428
v 3.810529 0.400000 0.242112
v 4.055089 0.400000 0.242112
v 4.055089 0.400000 -1.495703
v 4.767494 0.400000 -1.495703
v 4.767494 0.400000 -1.548830
v 5.186631 0.400000 -1.548830
v 5.186631 0.400000 -1.495703
v 5.263977 0.400000 -1.495703
v 5.263977 0.400000 -1.232631
v 5.553839 0.400000 -1.232631
v 5.553839 0.400000 -1.495703
v 6.747088 0.400000 -1.495703
v 6.747088 0.400000 1.386559
v 5.553839 0.400000 1.386559
v 5.553839 0.400000 1.251782
v 5.263977 0.400000 1.251782
v 5.263977 0.400000 1.386559
v 4.451375 0.400000 1.386559
v 4.451375 0.400000 1.439686
v 5.317151 0.400000 1.439686
v 5.317151 0.400000 1.304910
v 5.500663 0.400000 1.304910
v 5.500663 0.400000 1.439686
v 6.800227 0.400000 1.439686
v 6.800227 0.400000 -1.548830
v 5.500663 0.400000 -1.548830
v 5.500663 0.400000 -1.285758
v 5.317151 0.400000 -1.285758
v 5.317002 0.400000 -1.548830
v 3.335068 0.400000 0.471828
v 3.335068 0.400000 0.524993
v 4.001951 0.400000 0.524993
v 4.001951 0.400000 1.439686
v 4.128297 0.400000 1.439686
v 4.128297 0.400000 1.386559
v 4.055089 0.400000 1.386559
v 4.055089 0.400000 0.471828
v 5.264085 0.000000 0.985201
v 5.264085 0.400000 0.985201
v 5.264085 0.000000 -0.992484
v 5.264085 0.400000 -0.992484
v 5.553620 0.000000 0.985201
v 5.553620 0.400000 0.985201
v 5.553620 0.000000 -0.992484
v 5.553620 0.400000 -0.992484
v -2.371981 0.000000 1.439677
v -2.371981 0.400000 1.439677
v -2.371981 0.000000 -0.355126
v -2.371981 0.400000 -0.355126
v -1.041408 0.000000 1.439677
v -1.041408 0.400000 1.439677
v -1.041408 0.000000 -0.355126
v -1.041408 0.400000 -0.355126
v -2.317479 0.000000 -0.301848
v -2.317479 0.000000 1.386399
v -2.317479 0.400000 1.386399
v -2.317479 0.400000 -0.301848
v -1.095910 0.000000 -0.301848
v -1.095910 0.400000 -0.301848
v -1.095910 0.000000 1.386399
v -1.095910 0.400000 1.386399
v -1.498531 0.000000 1.439677
v -1.498531 0.400000 1.439677
v -1.204730 0.400000 1.439677
v -1.204730 0.000000 1.439677
v -1.498532 0.000000 1.386399
v -1.204730 0.000000 1.386399
v -1.204730 0.400000 1.386399
v -1.498532 0.400000 1.386399
vn 0.0000 -1.0000 0.0000
vn 0.0000 1.0000 0.0000
vn -1.0000 0.0000 0.0000
vn 1.0000 0.0000 0.0000
vn 0.0000 0.0000 1.0000
vn 0.0000 0.0000 -1.0000
vn 1.0000 0.0000 -0.0006
g Walls1_CUpath3769_Walls
usemtl Walls
s off
f 57//10 68//10 58//10
f 120//10 125//10 124//10
f 82//10 87//10 86//10
f 111//10 99//10 98//10
f 139//11 149//11 126//11
f 192//11 188//11 189//11
f 158//11 159//11 151//11
f 169//11 180//11 181//11
f 57//12 126//12 56//12
f 79//13 148//13 78//13
f 97//13 166//13 96//13
f 94//14 163//14 93//14
f 121//12 188//12 120//12
f 110//14 179//14 109//14
f 124//15 191//15 123//15
f 61//12 130//12 60//12
f 60//14 129//14 59//14
f 111//13 180//13 110//13
f 80//15 161//15 91//15
f 58//14 127//14 57//14
f 98//14 167//14 97//14
f 113//12 182//12 112//12
f 92//15 185//15 115//15
f 88//14 157//14 87//14
f 101//13 170//13 100//13
f 91//13 160//13 90//13
f 65//13 134//13 64//13
f 78//15 147//15 77//15
f 123//13 190//13 122//13
f 120//14 187//14 119//14
f 81//12 150//12 80//12
f 63//13 132//13 62//13
f 103//12 172//12 102//12
f 107//13 176//13 106//13
f 75//13 144//13 74//13
f 84//15 153//15 83//15
f 72//14 141//14 71//14
f 125//13 192//13 124//13
f 112//15 181//15 111//15
f 96//14 165//14 95//14
f 114//15 183//15 113//15
f 62//14 131//14 61//14
f 102//15 171//15 101//15
f 56//15 149//15 79//15
f 68//15 137//15 67//15
f 82//15 151//15 81//15
f 85//12 154//12 84//12
f 119//12 186//12 118//12
f 69//13 138//13 68//13
f 99//12 168//12 98//12
f 59//13 128//13 58//13
f 87//12 156//12 86//12
f 105//12 174//12 104//12
f 118//15 193//15 125//15
f 108//14 177//14 107//14
f 122//14 189//14 121//14
f 66//15 135//15 65//15
f 71//12 140//12 70//12
f 89//13 158//13 88//13
f 86//14 155//14 85//14
f 90//14 159//14 89//14
f 73//13 142//13 72//13
f 93//12 162//12 92//12
f 64//15 133//15 63//15
f 104//15 173//15 103//15
f 106//14 175//14 105//14
f 115//16 184//16 114//16
f 83//13 152//13 82//13
f 77//12 146//12 76//12
f 76//15 145//15 75//15
f 109//12 178//12 108//12
f 70//14 139//14 69//14
f 95//12 164//12 94//12
f 67//12 136//12 66//12
f 100//15 169//15 99//15
f 74//14 143//14 73//14
f 195//12 196//12 194//12
f 197//15 200//15 196//15
f 201//13 198//13 200//13
f 199//14 194//14 198//14
f 200//10 194//10 196//10
f 197//11 199//11 201//11
f 203//12 204//12 202//12
f 205//15 208//15 204//15
f 209//13 206//13 208//13
f 202//14 219//14 203//14
f 209//11 213//11 215//11
f 206//10 214//10 208//10
f 217//12 214//12 216//12
f 218//13 225//13 219//13
f 209//11 217//11 207//11
f 208//10 210//10 204//10
f 205//11 212//11 213//11
f 202//10 210//10 211//10
f 215//14 210//14 214//14
f 213//13 211//13 210//13
f 216//15 224//15 217//15
f 212//15 222//15 211//15
f 207//14 221//14 206//14
f 217//11 220//11 207//11
f 212//11 219//11 225//11
f 216//10 221//10 223//10
f 211//10 218//10 202//10
f 224//12 221//12 220//12
f 76//10 75//10 73//10
f 75//10 74//10 73//10
f 77//10 76//10 73//10
f 64//10 63//10 62//10
f 77//10 73//10 72//10
f 64//10 62//10 61//10
f 64//10 61//10 60//10
f 77//10 72//10 71//10
f 78//10 77//10 71//10
f 78//10 71//10 70//10
f 65//10 64//10 60//10
f 79//10 78//10 70//10
f 65//10 60//10 66//10
f 79//10 70//10 69//10
f 66//10 60//10 59//10
f 67//10 66//10 59//10
f 56//10 79//10 69//10
f 56//10 69//10 68//10
f 67//10 59//10 58//10
f 57//10 56//10 68//10
f 68//10 67//10 58//10
f 124//10 123//10 122//10
f 120//10 119//10 118//10
f 124//10 122//10 121//10
f 120//10 118//10 125//10
f 124//10 121//10 120//10
f 80//10 91//10 89//10
f 91//10 90//10 89//10
f 81//10 80//10 89//10
f 86//10 85//10 84//10
f 81//10 89//10 88//10
f 86//10 84//10 83//10
f 82//10 81//10 87//10
f 86//10 83//10 82//10
f 81//10 88//10 87//10
f 94//10 93//10 92//10
f 106//10 105//10 103//10
f 105//10 104//10 103//10
f 107//10 106//10 103//10
f 94//10 92//10 115//10
f 94//10 115//10 114//10
f 107//10 103//10 102//10
f 108//10 107//10 102//10
f 95//10 94//10 114//10
f 95//10 114//10 113//10
f 108//10 102//10 101//10
f 96//10 95//10 113//10
f 97//10 96//10 113//10
f 109//10 108//10 100//10
f 108//10 101//10 100//10
f 97//10 113//10 112//10
f 98//10 97//10 111//10
f 110//10 109//10 100//10
f 110//10 100//10 99//10
f 97//10 112//10 111//10
f 110//10 99//10 111//10
f 131//11 132//11 134//11
f 132//11 133//11 134//11
f 130//11 131//11 134//11
f 143//11 144//11 145//11
f 130//11 134//11 135//11
f 143//11 145//11 146//11
f 143//11 146//11 147//11
f 130//11 135//11 136//11
f 129//11 130//11 136//11
f 129//11 136//11 137//11
f 142//11 143//11 147//11
f 128//11 129//11 137//11
f 142//11 147//11 141//11
f 128//11 137//11 138//11
f 141//11 147//11 148//11
f 140//11 141//11 148//11
f 127//11 128//11 138//11
f 127//11 138//11 139//11
f 140//11 148//11 149//11
f 126//11 127//11 139//11
f 139//11 140//11 149//11
f 190//11 191//11 192//11
f 193//11 186//11 188//11
f 186//11 187//11 188//11
f 189//11 190//11 192//11
f 192//11 193//11 188//11
f 153//11 154//11 156//11
f 154//11 155//11 156//11
f 152//11 153//11 156//11
f 159//11 160//11 161//11
f 152//11 156//11 157//11
f 159//11 161//11 150//11
f 151//11 152//11 157//11
f 159//11 150//11 151//11
f 151//11 157//11 158//11
f 173//11 174//11 175//11
f 185//11 162//11 164//11
f 162//11 163//11 164//11
f 184//11 185//11 164//11
f 173//11 175//11 176//11
f 173//11 176//11 177//11
f 184//11 164//11 165//11
f 183//11 184//11 165//11
f 172//11 173//11 177//11
f 172//11 177//11 178//11
f 183//11 165//11 166//11
f 171//11 172//11 178//11
f 170//11 171//11 178//11
f 182//11 183//11 167//11
f 183//11 166//11 167//11
f 170//11 178//11 179//11
f 169//11 170//11 180//11
f 181//11 182//11 167//11
f 181//11 167//11 168//11
f 170//11 179//11 180//11
f 181//11 168//11 169//11
f 57//12 127//12 126//12
f 79//13 149//13 148//13
f 97//13 167//13 166//13
f 94//14 164//14 163//14
f 121//12 189//12 188//12
f 110//14 180//14 179//14
f 124//15 192//15 191//15
f 61//12 131//12 130//12
f 60//14 130//14 129//14
f 111//13 181//13 180//13
f 80//15 150//15 161//15
f 58//14 128//14 127//14
f 98//14 168//14 167//14
f 113//12 183//12 182//12
f 92//15 162//15 185//15
f 88//14 158//14 157//14
f 101//13 171//13 170//13
f 91//13 161//13 160//13
f 65//13 135//13 134//13
f 78//15 148//15 147//15
f 123//13 191//13 190//13
f 120//14 188//14 187//14
f 81//12 151//12 150//12
f 63//13 133//13 132//13
f 103//12 173//12 172//12
f 107//13 177//13 176//13
f 75//13 145//13 144//13
f 84//15 154//15 153//15
f 72//14 142//14 141//14
f 125//13 193//13 192//13
f 112//15 182//15 181//15
f 96//14 166//14 165//14
f 114//15 184//15 183//15
f 62//14 132//14 131//14
f 102//15 172//15 171//15
f 56//15 126//15 149//15
f 68//15 138//15 137//15
f 82//15 152//15 151//15
f 85//12 155//12 154//12
f 119//12 187//12 186//12
f 69//13 139//13 138//13
f 99//12 169//12 168//12
f 59//13 129//13 128//13
f 87//12 157//12 156//12
f 105//12 175//12 174//12
f 118//15 186//15 193//15
f 108//14 178//14 177//14
f 122//14 190//14 189//14
f 66//15 136//15 135//15
f 71//12 141//12 140//12
f 89//13 159//13 158//13
f 86//14 156//14 155//14
f 90//14 160//14 159//14
f 73//13 143//13 142//13
f 93//12 163//12 162//12
f 64//15 134//15 133//15
f 104//15 174//15 173//15
f 106//14 176//14 175//14
f 115//16 185//16 184//16
f 83//13 153//13 152//13
f 77//12 147//12 146//12
f 76//15 146//15 145//15
f 109//12 179//12 178//12
f 70//14 140//14 139//14
f 95//12 165//12 164//12
f 67//12 137//12 136//12
f 100//15 170//15 169//15
f 74//14 144//14 143//14
f 195//12 197//12 196//12
f 197//15 201//15 200//15
f 201//13 199//13 198//13
f 199//14 195//14 194//14
f 200//10 198//10 194//10
f 197//11 195//11 199//11
f 203//12 205//12 204//12
f 205//15 209//15 208//15
f 209//13 207//13 206//13
f 202//14 218//14 219//14
f 209//11 205//11 213//11
f 206//10 216//10 214//10
f 217//12 215//12 214//12
f 218//13 222//13 225//13
f 209//11 215//11 217//11
f 208//10 214//10 210//10
f 205//11 203//11 212//11
f 202//10 204//10 210//10
f 215//14 213//14 210//14
f 213//13 212//13 211//13
f 216//15 223//15 224//15
f 212//15 225//15 222//15
f 207//14 220//14 221//14
f 217//11 224//11 220//11
f 212//11 203//11 219//11
f 216//10 206//10 221//10
f 211//10 222//10 218//10
f 224//12 223//12 221//12
